<svg width="1073" height="184" viewBox="0 0 1073 184" fill="none" xmlns="http://www.w3.org/2000/svg">
<g clip-path="url(#clip0_4822_55718)">
<path fill-rule="evenodd" clip-rule="evenodd" d="M671.82 117.31C666.006 123.537 658.006 126.65 647.82 126.65H636V57.86H647.84C658 57.86 666 60.97 671.84 67.19C675.876 71.6192 678.577 77.1004 679.63 83H706.94C705.349 71.3255 699.622 60.6093 690.8 52.8C679.6 42.68 665.286 37.62 647.86 37.62H609.42V146.86H647.86C665.28 146.86 679.593 141.777 690.8 131.61C699.94 123.33 705.35 110.82 707.03 98.61H679.78C678.57 105.15 675.94 112.89 671.82 117.31ZM557.33 146.88H583.93V37.63H557.33V146.88ZM805.58 57.56V37.33H728.32V83H754.09V98.59H728.32V146.88H805.58V126.65H754.91V101.32H792V83.32H754.9V57.56H805.58ZM274.85 36.08C259.116 36.08 245.84 41.3467 235.02 51.88C224.2 62.4133 218.78 75.7867 218.76 92C218.76 108.16 224.18 121.537 235.02 132.13C245.731 142.317 259.948 147.999 274.73 147.999C289.512 147.999 303.729 142.317 314.44 132.13C325.233 121.523 330.63 108.147 330.63 92C330.63 75.8533 325.263 62.4967 314.53 51.93C303.79 41.3633 290.563 36.08 274.85 36.08ZM295.71 114.82C290.483 120.56 283.483 123.43 274.71 123.43C265.936 123.43 258.936 120.573 253.71 114.86C248.463 109.173 245.846 101.553 245.86 92C245.873 82.4467 248.49 74.82 253.71 69.12C258.93 63.4067 265.93 60.55 274.71 60.55C283.49 60.55 290.49 63.4067 295.71 69.12C300.95 74.84 303.566 82.4667 303.56 92C303.553 101.533 300.936 109.14 295.71 114.82ZM393.82 37.63H350.71V146.88H377.31V104.4H393.81C400.535 104.563 407.229 103.436 413.53 101.08C418.366 99.3354 422.663 96.3611 426 92.45C431.333 85.59 434 78.48 434 71.12C434.034 66.65 433.107 62.2249 431.282 58.1445C429.456 54.064 426.775 50.4237 423.42 47.47C416.326 40.9233 406.46 37.6433 393.82 37.63ZM403.39 80.58C402.128 81.8044 400.626 82.7545 398.979 83.3706C397.332 83.9867 395.576 84.2554 393.82 84.16H377.31V57.86H393.81C395.564 57.7798 397.316 58.0696 398.95 58.7105C400.585 59.3514 402.067 60.3291 403.3 61.58C404.499 62.8619 405.432 64.3683 406.047 66.0124C406.661 67.6566 406.944 69.406 406.88 71.16C406.961 72.8849 406.693 74.6085 406.091 76.2272C405.49 77.846 404.568 79.3265 403.38 80.58H403.39ZM523 92C519.715 89.8515 516.187 88.0994 512.49 86.78C508.691 85.388 504.822 84.193 500.9 83.2C497.01 82.2 493.45 81.2 490.32 80.09C487.425 79.1588 484.791 77.5589 482.63 75.42C481.624 74.3523 480.842 73.0943 480.33 71.72C479.811 70.3415 479.579 68.8713 479.65 67.4C479.56 65.9714 479.799 64.5413 480.35 63.22C480.908 61.8964 481.759 60.7167 482.84 59.77C485.155 57.9375 488.049 56.9908 491 57.1C492.511 57.0402 494.018 57.2926 495.427 57.8415C496.836 58.3903 498.117 59.2239 499.19 60.29C501.469 62.7935 502.812 66.0089 502.99 69.39H532C531.706 57.87 527.923 49.4267 520.65 44.06C513.376 38.6933 503.86 36.0267 492.1 36.06C480.333 36.06 470.666 39.12 463.1 45.24C459.425 48.1349 456.483 51.8537 454.511 56.0959C452.54 60.338 451.594 64.9846 451.75 69.66C451.655 74.3096 452.684 78.9135 454.75 83.08C456.499 86.6116 459.157 89.6142 462.45 91.78C465.709 93.8742 469.178 95.6236 472.8 97C476.592 98.4404 480.466 99.6591 484.4 100.65C488.29 101.65 491.85 102.71 494.98 103.84C497.857 104.819 500.485 106.417 502.68 108.52C503.674 109.516 504.453 110.705 504.969 112.014C505.485 113.323 505.727 114.724 505.68 116.13C505.722 117.574 505.452 119.01 504.89 120.34C504.327 121.671 503.485 122.864 502.42 123.84C499.915 125.956 496.693 127.03 493.42 126.84C485.22 126.84 480.75 122.483 480.01 113.77H451.64C451.64 124.697 455.4 133.097 462.92 138.97C470.44 144.843 480.346 147.8 492.64 147.84C504.94 147.84 514.843 144.547 522.35 137.96C529.856 131.373 533.616 123.463 533.63 114.23C533.745 109.514 532.715 104.841 530.63 100.61C528.868 97.1322 526.241 94.1669 523 92Z" fill="white"/>
<path fill-rule="evenodd" clip-rule="evenodd" d="M41.19 47.65L16.9 30.05C13.2153 36.1624 10.0829 42.5912 7.54 49.26L36 58.47C37.4861 54.7514 39.22 51.1366 41.19 47.65ZM64.54 20.65L42.62 0C35.8842 5.65661 29.7818 12.0272 24.42 19L48.64 36.54C53.2604 30.6162 58.6016 25.2917 64.54 20.69V20.65ZM32 71.27L3.5 62.06C1.72059 68.9474 0.549426 75.9777 0 83.07H30C30.4062 79.0969 31.0743 75.155 32 71.27ZM34.8 122.18L6.33 131.39C8.74318 138.282 11.786 144.936 15.42 151.27L39.79 133.63C37.8569 129.911 36.1861 126.062 34.79 122.11L34.8 122.18ZM46.85 145L22.7 162.49C28.3039 170.192 34.8065 177.198 42.07 183.36L63.94 162.7C57.4669 157.579 51.7179 151.605 46.85 144.94V145ZM29.85 98.65H0C0.338511 105.341 1.24172 111.991 2.7 118.53L31.29 109.28C30.599 105.743 30.1015 102.171 29.8 98.58L29.85 98.65Z" fill="#BDFD00"/>
<path fill-rule="evenodd" clip-rule="evenodd" d="M119.511 34C105.7 34.0086 92.3458 38.9504 81.8563 47.9345C71.3668 56.9187 64.4316 69.3544 62.3005 83H91.6505C93.7943 76.254 98.3108 70.5138 104.363 66.8432C110.415 63.1725 117.593 61.8203 124.566 63.037C131.539 64.2538 137.835 67.9571 142.286 73.4606C146.738 78.9641 149.043 85.8947 148.775 92.968C148.508 100.041 145.685 106.778 140.83 111.929C135.976 117.081 129.418 120.297 122.373 120.984C115.328 121.67 108.273 119.779 102.516 115.661C96.758 111.544 92.6883 105.479 91.0605 98.59H62.0605C63.3601 109.668 67.8348 120.135 74.9456 128.729C82.0565 137.323 91.5002 143.678 102.139 147.028C112.779 150.379 124.16 150.582 134.912 147.614C145.664 144.645 155.329 138.632 162.742 130.297C170.155 121.963 175.001 111.663 176.695 100.638C178.39 89.6127 176.861 78.333 172.292 68.157C167.724 57.981 160.311 49.3428 150.946 43.2826C141.582 37.2225 130.665 33.9988 119.511 34Z" fill="#BDFD00"/>
<path d="M872.471 52.66C872.471 64.27 864.311 66.66 852.771 66.66H842.821V86.56H838.381V38.46H852.771C864.311 38.46 872.471 41.12 872.471 52.66ZM842.821 62.54H853.371C861.261 62.54 867.831 61.61 867.831 52.66C867.831 43.71 861.261 42.51 853.371 42.51H842.821V62.54Z" fill="white"/>
<path d="M885.67 67.91C885.67 78.26 889.45 83.17 899.67 83.17C910.08 83.17 913.8 77.53 913.8 67.17V38.46H918.24V66.59C918.24 80.59 913.33 87.42 899.67 87.42C886.6 87.42 881.23 82.04 881.23 67.12V38.46H885.67V67.91Z" fill="white"/>
<path d="M948 38.46C956.69 38.46 964.25 40.92 964.25 50.6C964.25 55.71 961.6 59.6 958.02 61.21C963.72 62.87 966.24 66.99 966.24 72.69C966.24 82.69 958.88 86.55 949.53 86.55H931.58V38.46H948ZM948.86 59.62C955.36 59.62 959.61 57.43 959.61 50.87C959.61 45.1 955.49 42.51 949.06 42.51H936V59.62H948.86ZM949.79 82.51C957.62 82.51 961.53 78.99 961.53 72.76C961.53 66.26 957.62 63.47 949.39 63.47H936V82.47L949.79 82.51Z" fill="white"/>
<path d="M1007.39 82.44V86.55H977.48V38.46H981.92V82.46L1007.39 82.44Z" fill="white"/>
<path d="M1015.75 86.55V38.46H1020.2V86.55H1015.75Z" fill="white"/>
<path d="M1052.57 87.42C1038.77 87.42 1031.21 77 1031.21 62.48C1031.21 47.75 1039.04 37.6 1052.77 37.6C1063.64 37.6 1070.67 44.17 1072.77 53.92H1068.13C1066.2 45.92 1059.9 41.85 1052.67 41.85C1043.19 41.85 1035.96 49.21 1035.96 62.48C1035.96 75.28 1042.79 83.17 1052.67 83.17C1061.89 83.17 1067 77.33 1068.33 71.1H1072.97C1070.87 80.72 1063.91 87.42 1052.57 87.42Z" fill="white"/>
<path d="M840.569 146.16H871.739V150.27H835.199V146.27L865.769 106.27H837.579V102.15H871.079V106.15L840.569 146.16Z" fill="white"/>
<path d="M909.419 102.18H915.119L894.829 122.81L915.829 150.27H910.389L891.709 126L885.139 132.7V150.27H880.699V102.18H885.139V126.86L909.419 102.18Z" fill="white"/>
<path d="M914.73 129.78H933.3V134.42H914.73V129.78Z" fill="white"/>
<path d="M973.999 102.18V106.3H947.599V123.3H972.409V127.48H947.629V146.18H973.999V150.29H943.189V102.18H973.999Z" fill="white"/>
<path d="M998 144.77L1012.86 102.18H1017.64L1000.39 150.27H995.28L978 102.18H982.91L998 144.77Z" fill="white"/>
<path d="M1029.55 106.43V150.27H1025.11V102.18H1032.27L1048.19 145.18L1064.04 102.18H1071.14V150.27H1066.7V106.43L1050.38 150.27H1045.87L1029.55 106.43Z" fill="white"/>
</g>
<defs>
<clipPath id="clip0_4822_55718">
<rect width="1072.93" height="183.36" fill="white"/>
</clipPath>
</defs>
</svg>
